# Twintail Duelist - original example model for legaia-patcher monster-model
# Rigged to Lu Delilas's 15-part battle skeleton (raw GTE units, y-down)
mtllib twintail_duelist.mtl
v 28 -70 9 0.5445 0.5445 0.5445
v 11 -70 26 0.5445 0.5445 0.5445
v 8 -12 20 0.4109 0.4109 0.4109
v 20 -12 7 0.4109 0.4109 0.4109
v 11 -70 26 0.5724 0.5724 0.5724
v -11 -70 26 0.5724 0.5724 0.5724
v -8 -12 20 0.4320 0.4320 0.4320
v 8 -12 20 0.4320 0.4320 0.4320
v -11 -70 26 0.5445 0.5445 0.5445
v -28 -70 9 0.5445 0.5445 0.5445
v -20 -12 7 0.4109 0.4109 0.4109
v -8 -12 20 0.4109 0.4109 0.4109
v -28 -70 9 0.4770 0.4770 0.4770
v -28 -70 -13 0.4770 0.4770 0.4770
v -20 -12 -11 0.3600 0.3600 0.3600
v -20 -12 7 0.3600 0.3600 0.3600
v -28 -70 -13 0.4095 0.4095 0.4095
v -11 -70 -30 0.4095 0.4095 0.4095
v -8 -12 -24 0.3091 0.3091 0.3091
v -20 -12 -11 0.3091 0.3091 0.3091
v -11 -70 -30 0.3816 0.3816 0.3816
v 11 -70 -30 0.3816 0.3816 0.3816
v 8 -12 -24 0.2880 0.2880 0.2880
v -8 -12 -24 0.2880 0.2880 0.2880
v 11 -70 -30 0.4095 0.4095 0.4095
v 28 -70 -13 0.4095 0.4095 0.4095
v 20 -12 -11 0.3091 0.3091 0.3091
v 8 -12 -24 0.3091 0.3091 0.3091
v 28 -70 -13 0.4770 0.4770 0.4770
v 28 -70 9 0.4770 0.4770 0.4770
v 20 -12 7 0.3600 0.3600 0.3600
v 20 -12 -11 0.3600 0.3600 0.3600
v 28 -70 -13 0.5750 0.5750 0.5750
v 11 -70 -30 0.5750 0.5750 0.5750
v -11 -70 -30 0.5750 0.5750 0.5750
v -28 -70 -13 0.5750 0.5750 0.5750
v -28 -70 9 0.5750 0.5750 0.5750
v -11 -70 26 0.5750 0.5750 0.5750
v 11 -70 26 0.5750 0.5750 0.5750
v 28 -70 9 0.5750 0.5750 0.5750
v -22 -54 27 0.5250 0.5250 0.5250
v 22 -54 27 0.5250 0.5250 0.5250
v 18 -14 24 0.4750 0.4750 0.4750
v -18 -14 24 0.4750 0.4750 0.4750
v -24 -62 29 0.5500 0.5500 0.5500
v -8 -62 29 0.5500 0.5500 0.5500
v -8 -46 32 0.4500 0.4500 0.4500
v -24 -46 32 0.4500 0.4500 0.4500
v -7 -62 29 0.5500 0.5500 0.5500
v 7 -62 29 0.5500 0.5500 0.5500
v 7 -51 32 0.4500 0.4500 0.4500
v -7 -51 32 0.4500 0.4500 0.4500
v 8 -62 29 0.5500 0.5500 0.5500
v 24 -62 29 0.5500 0.5500 0.5500
v 24 -46 32 0.4500 0.4500 0.4500
v 8 -46 32 0.4500 0.4500 0.4500
v 6 -16 3 0.5596 0.5596 0.5596
v 0 -16 7 0.5596 0.5596 0.5596
v 0 4 8 0.4224 0.4224 0.4224
v 7 4 4 0.4224 0.4224 0.4224
v -6 -16 3 0.5596 0.5596 0.5596
v -7 4 4 0.4224 0.4224 0.4224
v -6 -16 3 0.4770 0.4770 0.4770
v -6 -16 -3 0.4770 0.4770 0.4770
v -7 4 -4 0.3600 0.3600 0.3600
v -7 4 4 0.3600 0.3600 0.3600
v -6 -16 -3 0.3944 0.3944 0.3944
v 0 -16 -7 0.3944 0.3944 0.3944
v 0 4 -8 0.2976 0.2976 0.2976
v -7 4 -4 0.2976 0.2976 0.2976
v 6 -16 -4 0.3944 0.3944 0.3944
v 7 4 -4 0.2976 0.2976 0.2976
v 6 -16 -4 0.4770 0.4770 0.4770
v 6 -16 3 0.4770 0.4770 0.4770
v 7 4 4 0.3600 0.3600 0.3600
v 7 4 -4 0.3600 0.3600 0.3600
v -34 -66 2 0.5100 0.5100 0.5100
v -22 -66 2 0.5100 0.5100 0.5100
v -22 -54 2 0.5100 0.5100 0.5100
v -34 -54 2 0.5100 0.5100 0.5100
v -22 -66 -10 0.3750 0.3750 0.3750
v -34 -66 -10 0.3750 0.3750 0.3750
v -34 -54 -10 0.3750 0.3750 0.3750
v -22 -54 -10 0.3750 0.3750 0.3750
v -22 -66 2 0.4600 0.4600 0.4600
v -22 -66 -10 0.4600 0.4600 0.4600
v -22 -54 -10 0.4600 0.4600 0.4600
v -22 -54 2 0.4600 0.4600 0.4600
v -34 -66 -10 0.4600 0.4600 0.4600
v -34 -66 2 0.4600 0.4600 0.4600
v -34 -54 2 0.4600 0.4600 0.4600
v -34 -54 -10 0.4600 0.4600 0.4600
v -34 -66 -10 0.5600 0.5600 0.5600
v -22 -66 -10 0.5600 0.5600 0.5600
v -22 -66 2 0.5600 0.5600 0.5600
v -34 -66 2 0.5600 0.5600 0.5600
v -34 -54 2 0.3100 0.3100 0.3100
v -22 -54 2 0.3100 0.3100 0.3100
v -22 -54 -10 0.3100 0.3100 0.3100
v -34 -54 -10 0.3100 0.3100 0.3100
v 22 -66 2 0.5100 0.5100 0.5100
v 34 -66 2 0.5100 0.5100 0.5100
v 34 -54 2 0.5100 0.5100 0.5100
v 22 -54 2 0.5100 0.5100 0.5100
v 34 -66 -10 0.3750 0.3750 0.3750
v 22 -66 -10 0.3750 0.3750 0.3750
v 22 -54 -10 0.3750 0.3750 0.3750
v 34 -54 -10 0.3750 0.3750 0.3750
v 34 -66 2 0.4600 0.4600 0.4600
v 34 -66 -10 0.4600 0.4600 0.4600
v 34 -54 -10 0.4600 0.4600 0.4600
v 34 -54 2 0.4600 0.4600 0.4600
v 22 -66 -10 0.4600 0.4600 0.4600
v 22 -66 2 0.4600 0.4600 0.4600
v 22 -54 2 0.4600 0.4600 0.4600
v 22 -54 -10 0.4600 0.4600 0.4600
v 22 -66 -10 0.5600 0.5600 0.5600
v 34 -66 -10 0.5600 0.5600 0.5600
v 34 -66 2 0.5600 0.5600 0.5600
v 22 -66 2 0.5600 0.5600 0.5600
v 22 -54 2 0.3100 0.3100 0.3100
v 34 -54 2 0.3100 0.3100 0.3100
v 34 -54 -10 0.3100 0.3100 0.3100
v 22 -54 -10 0.3100 0.3100 0.3100
v -31 -60 3 0.5677 0.5677 0.5677
v -46 -60 8 0.5677 0.5677 0.5677
v -47 -6 11 0.4285 0.4285 0.4285
v -29 -6 5 0.4285 0.4285 0.4285
v -46 -60 8 0.5331 0.5331 0.5331
v -55 -60 -6 0.5331 0.5331 0.5331
v -58 -6 -6 0.4023 0.4023 0.4023
v -47 -6 11 0.4023 0.4023 0.4023
v -55 -60 -6 0.4209 0.4209 0.4209
v -46 -60 -20 0.4209 0.4209 0.4209
v -47 -6 -23 0.3177 0.3177 0.3177
v -58 -6 -6 0.3177 0.3177 0.3177
v -46 -60 -20 0.3863 0.3863 0.3863
v -31 -60 -15 0.3863 0.3863 0.3863
v -29 -6 -17 0.2915 0.2915 0.2915
v -47 -6 -23 0.2915 0.2915 0.2915
v -31 -60 -15 0.4770 0.4770 0.4770
v -31 -60 3 0.4770 0.4770 0.4770
v -29 -6 5 0.3600 0.3600 0.3600
v -29 -6 -17 0.3600 0.3600 0.3600
v -31 -60 -15 0.5750 0.5750 0.5750
v -46 -60 -20 0.5750 0.5750 0.5750
v -55 -60 -6 0.5750 0.5750 0.5750
v -46 -60 8 0.5750 0.5750 0.5750
v -31 -60 3 0.5750 0.5750 0.5750
v -35 -6 1 0.5677 0.5677 0.5677
v -53 -6 7 0.5677 0.5677 0.5677
v -50 58 -3 0.4285 0.4285 0.4285
v -43 58 -6 0.4285 0.4285 0.4285
v -53 -6 7 0.5331 0.5331 0.5331
v -64 -6 -10 0.5331 0.5331 0.5331
v -54 58 -10 0.4023 0.4023 0.4023
v -50 58 -3 0.4023 0.4023 0.4023
v -64 -6 -10 0.4209 0.4209 0.4209
v -53 -6 -27 0.4209 0.4209 0.4209
v -50 58 -17 0.3177 0.3177 0.3177
v -54 58 -10 0.3177 0.3177 0.3177
v -53 -6 -27 0.3863 0.3863 0.3863
v -35 -6 -21 0.3863 0.3863 0.3863
v -43 58 -14 0.2915 0.2915 0.2915
v -50 58 -17 0.2915 0.2915 0.2915
v -35 -6 -21 0.4770 0.4770 0.4770
v -35 -6 1 0.4770 0.4770 0.4770
v -43 58 -6 0.3600 0.3600 0.3600
v -43 58 -14 0.3600 0.3600 0.3600
v -46 58 -7 0.5724 0.5724 0.5724
v -54 58 -7 0.5724 0.5724 0.5724
v -51 82 -11 0.4320 0.4320 0.4320
v -49 82 -11 0.4320 0.4320 0.4320
v -54 58 -7 0.4770 0.4770 0.4770
v -54 58 -17 0.4770 0.4770 0.4770
v -51 82 -13 0.3600 0.3600 0.3600
v -51 82 -11 0.3600 0.3600 0.3600
v -54 58 -17 0.3816 0.3816 0.3816
v -46 58 -17 0.3816 0.3816 0.3816
v -49 82 -13 0.2880 0.2880 0.2880
v -51 82 -13 0.2880 0.2880 0.2880
v -46 58 -17 0.4770 0.4770 0.4770
v -46 58 -7 0.4770 0.4770 0.4770
v -49 82 -11 0.3600 0.3600 0.3600
v -49 82 -13 0.3600 0.3600 0.3600
v -49 82 -11 0.3000 0.3000 0.3000
v -51 82 -11 0.3000 0.3000 0.3000
v -51 82 -13 0.3000 0.3000 0.3000
v -49 82 -13 0.3000 0.3000 0.3000
v 53 -60 3 0.5677 0.5677 0.5677
v 38 -60 8 0.5677 0.5677 0.5677
v 37 -6 11 0.4285 0.4285 0.4285
v 55 -6 5 0.4285 0.4285 0.4285
v 38 -60 8 0.5331 0.5331 0.5331
v 29 -60 -6 0.5331 0.5331 0.5331
v 26 -6 -6 0.4023 0.4023 0.4023
v 37 -6 11 0.4023 0.4023 0.4023
v 29 -60 -6 0.4209 0.4209 0.4209
v 38 -60 -20 0.4209 0.4209 0.4209
v 37 -6 -23 0.3177 0.3177 0.3177
v 26 -6 -6 0.3177 0.3177 0.3177
v 38 -60 -20 0.3863 0.3863 0.3863
v 53 -60 -15 0.3863 0.3863 0.3863
v 55 -6 -17 0.2915 0.2915 0.2915
v 37 -6 -23 0.2915 0.2915 0.2915
v 53 -60 -15 0.4770 0.4770 0.4770
v 53 -60 3 0.4770 0.4770 0.4770
v 55 -6 5 0.3600 0.3600 0.3600
v 55 -6 -17 0.3600 0.3600 0.3600
v 53 -60 -15 0.5750 0.5750 0.5750
v 38 -60 -20 0.5750 0.5750 0.5750
v 29 -60 -6 0.5750 0.5750 0.5750
v 38 -60 8 0.5750 0.5750 0.5750
v 53 -60 3 0.5750 0.5750 0.5750
v 61 -6 1 0.5677 0.5677 0.5677
v 43 -6 7 0.5677 0.5677 0.5677
v 46 58 -3 0.4285 0.4285 0.4285
v 53 58 -6 0.4285 0.4285 0.4285
v 43 -6 7 0.5331 0.5331 0.5331
v 32 -6 -10 0.5331 0.5331 0.5331
v 42 58 -10 0.4023 0.4023 0.4023
v 46 58 -3 0.4023 0.4023 0.4023
v 32 -6 -10 0.4209 0.4209 0.4209
v 43 -6 -27 0.4209 0.4209 0.4209
v 46 58 -17 0.3177 0.3177 0.3177
v 42 58 -10 0.3177 0.3177 0.3177
v 43 -6 -27 0.3863 0.3863 0.3863
v 61 -6 -21 0.3863 0.3863 0.3863
v 53 58 -14 0.2915 0.2915 0.2915
v 46 58 -17 0.2915 0.2915 0.2915
v 61 -6 -21 0.4770 0.4770 0.4770
v 61 -6 1 0.4770 0.4770 0.4770
v 53 58 -6 0.3600 0.3600 0.3600
v 53 58 -14 0.3600 0.3600 0.3600
v 54 58 -7 0.5724 0.5724 0.5724
v 46 58 -7 0.5724 0.5724 0.5724
v 49 82 -11 0.4320 0.4320 0.4320
v 51 82 -11 0.4320 0.4320 0.4320
v 46 58 -7 0.4770 0.4770 0.4770
v 46 58 -17 0.4770 0.4770 0.4770
v 49 82 -13 0.3600 0.3600 0.3600
v 49 82 -11 0.3600 0.3600 0.3600
v 46 58 -17 0.3816 0.3816 0.3816
v 54 58 -17 0.3816 0.3816 0.3816
v 51 82 -13 0.2880 0.2880 0.2880
v 49 82 -13 0.2880 0.2880 0.2880
v 54 58 -17 0.4770 0.4770 0.4770
v 54 58 -7 0.4770 0.4770 0.4770
v 51 82 -11 0.3600 0.3600 0.3600
v 51 82 -13 0.3600 0.3600 0.3600
v 51 82 -11 0.3000 0.3000 0.3000
v 49 82 -11 0.3000 0.3000 0.3000
v 49 82 -13 0.3000 0.3000 0.3000
v 51 82 -13 0.3000 0.3000 0.3000
v 25 -72 7 0.5445 0.5445 0.5445
v 10 -72 16 0.5445 0.5445 0.5445
v 8 2 12 0.4109 0.4109 0.4109
v 19 2 5 0.4109 0.4109 0.4109
v 10 -72 16 0.5724 0.5724 0.5724
v -10 -72 16 0.5724 0.5724 0.5724
v -8 2 12 0.4320 0.4320 0.4320
v 8 2 12 0.4320 0.4320 0.4320
v -10 -72 16 0.5445 0.5445 0.5445
v -25 -72 7 0.5445 0.5445 0.5445
v -19 2 5 0.4109 0.4109 0.4109
v -8 2 12 0.4109 0.4109 0.4109
v -25 -72 7 0.4770 0.4770 0.4770
v -25 -72 -7 0.4770 0.4770 0.4770
v -19 2 -5 0.3600 0.3600 0.3600
v -19 2 5 0.3600 0.3600 0.3600
v -25 -72 -7 0.4095 0.4095 0.4095
v -10 -72 -16 0.4095 0.4095 0.4095
v -8 2 -12 0.3091 0.3091 0.3091
v -19 2 -5 0.3091 0.3091 0.3091
v -10 -72 -16 0.3816 0.3816 0.3816
v 10 -72 -16 0.3816 0.3816 0.3816
v 8 2 -12 0.2880 0.2880 0.2880
v -8 2 -12 0.2880 0.2880 0.2880
v 10 -72 -16 0.4095 0.4095 0.4095
v 25 -72 -7 0.4095 0.4095 0.4095
v 19 2 -5 0.3091 0.3091 0.3091
v 8 2 -12 0.3091 0.3091 0.3091
v 25 -72 -7 0.4770 0.4770 0.4770
v 25 -72 7 0.4770 0.4770 0.4770
v 19 2 5 0.3600 0.3600 0.3600
v 19 2 -5 0.3600 0.3600 0.3600
v 21 -98 4 0.5445 0.5445 0.5445
v 9 -98 12 0.5445 0.5445 0.5445
v 10 -72 15 0.4109 0.4109 0.4109
v 25 -72 6 0.4109 0.4109 0.4109
v 9 -98 12 0.5724 0.5724 0.5724
v -9 -98 12 0.5724 0.5724 0.5724
v -10 -72 15 0.4320 0.4320 0.4320
v 10 -72 15 0.4320 0.4320 0.4320
v -9 -98 12 0.5445 0.5445 0.5445
v -21 -98 4 0.5445 0.5445 0.5445
v -25 -72 6 0.4109 0.4109 0.4109
v -10 -72 15 0.4109 0.4109 0.4109
v -21 -98 4 0.4770 0.4770 0.4770
v -21 -98 -6 0.4770 0.4770 0.4770
v -25 -72 -8 0.3600 0.3600 0.3600
v -25 -72 6 0.3600 0.3600 0.3600
v -21 -98 -6 0.4095 0.4095 0.4095
v -9 -98 -14 0.4095 0.4095 0.4095
v -10 -72 -17 0.3091 0.3091 0.3091
v -25 -72 -8 0.3091 0.3091 0.3091
v -9 -98 -14 0.3816 0.3816 0.3816
v 9 -98 -14 0.3816 0.3816 0.3816
v 10 -72 -17 0.2880 0.2880 0.2880
v -10 -72 -17 0.2880 0.2880 0.2880
v 9 -98 -14 0.4095 0.4095 0.4095
v 21 -98 -6 0.4095 0.4095 0.4095
v 25 -72 -8 0.3091 0.3091 0.3091
v 10 -72 -17 0.3091 0.3091 0.3091
v 21 -98 -6 0.4770 0.4770 0.4770
v 21 -98 4 0.4770 0.4770 0.4770
v 25 -72 6 0.3600 0.3600 0.3600
v 25 -72 -8 0.3600 0.3600 0.3600
v 21 -98 -6 0.5750 0.5750 0.5750
v 9 -98 -14 0.5750 0.5750 0.5750
v -9 -98 -14 0.5750 0.5750 0.5750
v -21 -98 -6 0.5750 0.5750 0.5750
v -21 -98 4 0.5750 0.5750 0.5750
v -9 -98 12 0.5750 0.5750 0.5750
v 9 -98 12 0.5750 0.5750 0.5750
v 21 -98 4 0.5750 0.5750 0.5750
v -34 -104 12 0.5100 0.5100 0.5100
v -14 -104 12 0.5100 0.5100 0.5100
v -14 -82 12 0.5100 0.5100 0.5100
v -34 -82 12 0.5100 0.5100 0.5100
v -14 -104 -12 0.3750 0.3750 0.3750
v -34 -104 -12 0.3750 0.3750 0.3750
v -34 -82 -12 0.3750 0.3750 0.3750
v -14 -82 -12 0.3750 0.3750 0.3750
v -14 -104 12 0.4600 0.4600 0.4600
v -14 -104 -12 0.4600 0.4600 0.4600
v -14 -82 -12 0.4600 0.4600 0.4600
v -14 -82 12 0.4600 0.4600 0.4600
v -34 -104 -12 0.4600 0.4600 0.4600
v -34 -104 12 0.4600 0.4600 0.4600
v -34 -82 12 0.4600 0.4600 0.4600
v -34 -82 -12 0.4600 0.4600 0.4600
v -34 -104 -12 0.5600 0.5600 0.5600
v -14 -104 -12 0.5600 0.5600 0.5600
v -14 -104 12 0.5600 0.5600 0.5600
v -34 -104 12 0.5600 0.5600 0.5600
v -34 -82 12 0.3100 0.3100 0.3100
v -14 -82 12 0.3100 0.3100 0.3100
v -14 -82 -12 0.3100 0.3100 0.3100
v -34 -82 -12 0.3100 0.3100 0.3100
v 14 -104 12 0.5100 0.5100 0.5100
v 34 -104 12 0.5100 0.5100 0.5100
v 34 -82 12 0.5100 0.5100 0.5100
v 14 -82 12 0.5100 0.5100 0.5100
v 34 -104 -12 0.3750 0.3750 0.3750
v 14 -104 -12 0.3750 0.3750 0.3750
v 14 -82 -12 0.3750 0.3750 0.3750
v 34 -82 -12 0.3750 0.3750 0.3750
v 34 -104 12 0.4600 0.4600 0.4600
v 34 -104 -12 0.4600 0.4600 0.4600
v 34 -82 -12 0.4600 0.4600 0.4600
v 34 -82 12 0.4600 0.4600 0.4600
v 14 -104 -12 0.4600 0.4600 0.4600
v 14 -104 12 0.4600 0.4600 0.4600
v 14 -82 12 0.4600 0.4600 0.4600
v 14 -82 -12 0.4600 0.4600 0.4600
v 14 -104 -12 0.5600 0.5600 0.5600
v 34 -104 -12 0.5600 0.5600 0.5600
v 34 -104 12 0.5600 0.5600 0.5600
v 14 -104 12 0.5600 0.5600 0.5600
v 14 -82 12 0.3100 0.3100 0.3100
v 34 -82 12 0.3100 0.3100 0.3100
v 34 -82 -12 0.3100 0.3100 0.3100
v 14 -82 -12 0.3100 0.3100 0.3100
v -6 -88 20 0.5100 0.5100 0.5100
v 8 -88 20 0.5100 0.5100 0.5100
v 8 -74 20 0.5100 0.5100 0.5100
v -6 -74 20 0.5100 0.5100 0.5100
v 8 -88 20 0.4600 0.4600 0.4600
v 8 -88 14 0.4600 0.4600 0.4600
v 8 -74 14 0.4600 0.4600 0.4600
v 8 -74 20 0.4600 0.4600 0.4600
v -6 -88 14 0.4600 0.4600 0.4600
v -6 -88 20 0.4600 0.4600 0.4600
v -6 -74 20 0.4600 0.4600 0.4600
v -6 -74 14 0.4600 0.4600 0.4600
v -6 -88 14 0.5600 0.5600 0.5600
v 8 -88 14 0.5600 0.5600 0.5600
v 8 -88 20 0.5600 0.5600 0.5600
v -6 -88 20 0.5600 0.5600 0.5600
v -6 -74 20 0.3100 0.3100 0.3100
v 8 -74 20 0.3100 0.3100 0.3100
v 8 -74 14 0.3100 0.3100 0.3100
v -6 -74 14 0.3100 0.3100 0.3100
v 22 -2 6 0.5319 0.5319 0.5319
v 9 -2 15 0.5319 0.5319 0.5319
v 21 64 35 0.3647 0.3647 0.3647
v 50 64 15 0.3647 0.3647 0.3647
v 9 -2 15 0.5565 0.5565 0.5565
v -9 -2 15 0.5565 0.5565 0.5565
v -21 64 35 0.3816 0.3816 0.3816
v 21 64 35 0.3816 0.3816 0.3816
v -9 -2 15 0.5319 0.5319 0.5319
v -22 -2 6 0.5319 0.5319 0.5319
v -50 64 15 0.3647 0.3647 0.3647
v -21 64 35 0.3647 0.3647 0.3647
v -22 -2 6 0.4725 0.4725 0.4725
v -22 -2 -6 0.4725 0.4725 0.4725
v -50 64 -15 0.3240 0.3240 0.3240
v -50 64 15 0.3240 0.3240 0.3240
v -22 -2 -6 0.4131 0.4131 0.4131
v -9 -2 -15 0.4131 0.4131 0.4131
v -21 64 -35 0.2833 0.2833 0.2833
v -50 64 -15 0.2833 0.2833 0.2833
v -9 -2 -15 0.3885 0.3885 0.3885
v 9 -2 -15 0.3885 0.3885 0.3885
v 21 64 -35 0.2664 0.2664 0.2664
v -21 64 -35 0.2664 0.2664 0.2664
v 9 -2 -15 0.4131 0.4131 0.4131
v 22 -2 -6 0.4131 0.4131 0.4131
v 50 64 -15 0.2833 0.2833 0.2833
v 21 64 -35 0.2833 0.2833 0.2833
v 22 -2 -6 0.4725 0.4725 0.4725
v 22 -2 6 0.4725 0.4725 0.4725
v 50 64 15 0.3240 0.3240 0.3240
v 50 64 -15 0.3240 0.3240 0.3240
v -34 60 -22 0.4000 0.4000 0.4000
v -8 62 -34 0.4000 0.4000 0.4000
v -14 100 -38 0.2750 0.2750 0.2750
v -44 96 -24 0.2750 0.2750 0.2750
v 34 60 -22 0.4000 0.4000 0.4000
v 8 62 -34 0.4000 0.4000 0.4000
v 14 100 -38 0.2750 0.2750 0.2750
v 44 96 -24 0.2750 0.2750 0.2750
v 10 -6 6 0.5596 0.5596 0.5596
v 0 -6 12 0.5596 0.5596 0.5596
v 0 56 9 0.4224 0.4224 0.4224
v 8 56 4 0.4224 0.4224 0.4224
v -10 -6 6 0.5596 0.5596 0.5596
v -8 56 4 0.4224 0.4224 0.4224
v -10 -6 6 0.4770 0.4770 0.4770
v -10 -6 -6 0.4770 0.4770 0.4770
v -8 56 -4 0.3600 0.3600 0.3600
v -8 56 4 0.3600 0.3600 0.3600
v -10 -6 -6 0.3944 0.3944 0.3944
v 0 -6 -12 0.3944 0.3944 0.3944
v 0 56 -9 0.2976 0.2976 0.2976
v -8 56 -4 0.2976 0.2976 0.2976
v 10 -6 -6 0.3944 0.3944 0.3944
v 8 56 -5 0.2976 0.2976 0.2976
v 10 -6 -6 0.4770 0.4770 0.4770
v 10 -6 6 0.4770 0.4770 0.4770
v 8 56 4 0.3600 0.3600 0.3600
v 8 56 -5 0.3600 0.3600 0.3600
v 10 -6 -6 0.5750 0.5750 0.5750
v 0 -6 -12 0.5750 0.5750 0.5750
v -10 -6 -6 0.5750 0.5750 0.5750
v -10 -6 6 0.5750 0.5750 0.5750
v 0 -6 12 0.5750 0.5750 0.5750
v 10 -6 6 0.5750 0.5750 0.5750
v 10 -3 5 0.5596 0.5596 0.5596
v 0 -3 11 0.5596 0.5596 0.5596
v -10 -3 5 0.5596 0.5596 0.5596
v -10 -3 5 0.4770 0.4770 0.4770
v -10 -3 -5 0.4770 0.4770 0.4770
v -10 -3 -5 0.3944 0.3944 0.3944
v 0 -3 -11 0.3944 0.3944 0.3944
v 10 -3 -6 0.3944 0.3944 0.3944
v 10 -3 -6 0.4770 0.4770 0.4770
v 10 -3 5 0.4770 0.4770 0.4770
v 10 -3 -6 0.5750 0.5750 0.5750
v 0 -3 -11 0.5750 0.5750 0.5750
v -10 -3 -5 0.5750 0.5750 0.5750
v -10 -3 5 0.5750 0.5750 0.5750
v 0 -3 11 0.5750 0.5750 0.5750
v 10 -3 5 0.5750 0.5750 0.5750
v -9 0 10 0.5100 0.5100 0.5100
v 9 0 10 0.5100 0.5100 0.5100
v 9 26 10 0.5100 0.5100 0.5100
v -9 26 10 0.5100 0.5100 0.5100
v 9 0 -8 0.3750 0.3750 0.3750
v -9 0 -8 0.3750 0.3750 0.3750
v -9 26 -8 0.3750 0.3750 0.3750
v 9 26 -8 0.3750 0.3750 0.3750
v 9 0 10 0.4600 0.4600 0.4600
v 9 0 -8 0.4600 0.4600 0.4600
v 9 26 -8 0.4600 0.4600 0.4600
v 9 26 10 0.4600 0.4600 0.4600
v -9 0 -8 0.4600 0.4600 0.4600
v -9 0 10 0.4600 0.4600 0.4600
v -9 26 10 0.4600 0.4600 0.4600
v -9 26 -8 0.4600 0.4600 0.4600
v -9 0 -8 0.5600 0.5600 0.5600
v 9 0 -8 0.5600 0.5600 0.5600
v 9 0 10 0.5600 0.5600 0.5600
v -9 0 10 0.5600 0.5600 0.5600
v -9 26 10 0.3100 0.3100 0.3100
v 9 26 10 0.3100 0.3100 0.3100
v 9 26 -8 0.3100 0.3100 0.3100
v -9 26 -8 0.3100 0.3100 0.3100
v -7 24 8 0.5100 0.5100 0.5100
v 7 24 8 0.5100 0.5100 0.5100
v 7 33 8 0.5100 0.5100 0.5100
v -7 33 8 0.5100 0.5100 0.5100
v 7 24 -6 0.3750 0.3750 0.3750
v -7 24 -6 0.3750 0.3750 0.3750
v -7 33 -6 0.3750 0.3750 0.3750
v 7 33 -6 0.3750 0.3750 0.3750
v 7 24 8 0.4600 0.4600 0.4600
v 7 24 -6 0.4600 0.4600 0.4600
v 7 33 -6 0.4600 0.4600 0.4600
v 7 33 8 0.4600 0.4600 0.4600
v -7 24 -6 0.4600 0.4600 0.4600
v -7 24 8 0.4600 0.4600 0.4600
v -7 33 8 0.4600 0.4600 0.4600
v -7 33 -6 0.4600 0.4600 0.4600
v -7 24 -6 0.5600 0.5600 0.5600
v 7 24 -6 0.5600 0.5600 0.5600
v 7 24 8 0.5600 0.5600 0.5600
v -7 24 8 0.5600 0.5600 0.5600
v -7 33 8 0.3100 0.3100 0.3100
v 7 33 8 0.3100 0.3100 0.3100
v 7 33 -6 0.3100 0.3100 0.3100
v -7 33 -6 0.3100 0.3100 0.3100
v -8 6 22 0.5100 0.5100 0.5100
v 8 6 22 0.5100 0.5100 0.5100
v 8 22 22 0.5100 0.5100 0.5100
v -8 22 22 0.5100 0.5100 0.5100
v 8 6 10 0.3750 0.3750 0.3750
v -8 6 10 0.3750 0.3750 0.3750
v -8 22 10 0.3750 0.3750 0.3750
v 8 22 10 0.3750 0.3750 0.3750
v 8 6 22 0.4600 0.4600 0.4600
v 8 6 10 0.4600 0.4600 0.4600
v 8 22 10 0.4600 0.4600 0.4600
v 8 22 22 0.4600 0.4600 0.4600
v -8 6 10 0.4600 0.4600 0.4600
v -8 6 22 0.4600 0.4600 0.4600
v -8 22 22 0.4600 0.4600 0.4600
v -8 22 10 0.4600 0.4600 0.4600
v -8 6 10 0.5600 0.5600 0.5600
v 8 6 10 0.5600 0.5600 0.5600
v 8 6 22 0.5600 0.5600 0.5600
v -8 6 22 0.5600 0.5600 0.5600
v -8 22 22 0.3100 0.3100 0.3100
v 8 22 22 0.3100 0.3100 0.3100
v 8 22 10 0.3100 0.3100 0.3100
v -8 22 10 0.3100 0.3100 0.3100
v 8 56 -4 0.3600 0.3600 0.3600
v 8 56 -4 0.2976 0.2976 0.2976
v -8 56 -5 0.2976 0.2976 0.2976
v -8 56 -5 0.3600 0.3600 0.3600
v 10 -3 -5 0.4770 0.4770 0.4770
v 10 -3 -5 0.3944 0.3944 0.3944
v -10 -3 -6 0.3944 0.3944 0.3944
v -10 -3 -6 0.4770 0.4770 0.4770
v 10 -3 -5 0.5750 0.5750 0.5750
v -10 -3 -6 0.5750 0.5750 0.5750
v -4 31 16 0.5100 0.5100 0.5100
v 4 31 16 0.5100 0.5100 0.5100
v 4 37 16 0.5100 0.5100 0.5100
v -4 37 16 0.5100 0.5100 0.5100
v 4 31 -14 0.3750 0.3750 0.3750
v -4 31 -14 0.3750 0.3750 0.3750
v -4 37 -14 0.3750 0.3750 0.3750
v 4 37 -14 0.3750 0.3750 0.3750
v 4 31 16 0.4600 0.4600 0.4600
v 4 31 -14 0.4600 0.4600 0.4600
v 4 37 -14 0.4600 0.4600 0.4600
v 4 37 16 0.4600 0.4600 0.4600
v -4 31 -14 0.4600 0.4600 0.4600
v -4 31 16 0.4600 0.4600 0.4600
v -4 37 16 0.4600 0.4600 0.4600
v -4 37 -14 0.4600 0.4600 0.4600
v -4 31 -14 0.5600 0.5600 0.5600
v 4 31 -14 0.5600 0.5600 0.5600
v 4 31 16 0.5600 0.5600 0.5600
v -4 31 16 0.5600 0.5600 0.5600
v -4 37 16 0.3100 0.3100 0.3100
v 4 37 16 0.3100 0.3100 0.3100
v 4 37 -14 0.3100 0.3100 0.3100
v -4 37 -14 0.3100 0.3100 0.3100
v -2 37 12 0.5100 0.5100 0.5100
v 2 37 12 0.5100 0.5100 0.5100
v 2 74 12 0.5100 0.5100 0.5100
v -2 74 12 0.5100 0.5100 0.5100
v 2 37 -4 0.3750 0.3750 0.3750
v -2 37 -4 0.3750 0.3750 0.3750
v -2 74 -4 0.3750 0.3750 0.3750
v 2 74 -4 0.3750 0.3750 0.3750
v 2 37 12 0.4600 0.4600 0.4600
v 2 37 -4 0.4600 0.4600 0.4600
v 2 74 -4 0.4600 0.4600 0.4600
v 2 74 12 0.4600 0.4600 0.4600
v -2 37 -4 0.4600 0.4600 0.4600
v -2 37 12 0.4600 0.4600 0.4600
v -2 74 12 0.4600 0.4600 0.4600
v -2 74 -4 0.4600 0.4600 0.4600
v -2 37 -4 0.5600 0.5600 0.5600
v 2 37 -4 0.5600 0.5600 0.5600
v 2 37 12 0.5600 0.5600 0.5600
v -2 37 12 0.5600 0.5600 0.5600
v -2 74 12 0.3100 0.3100 0.3100
v 2 74 12 0.3100 0.3100 0.3100
v 2 74 -4 0.3100 0.3100 0.3100
v -2 74 -4 0.3100 0.3100 0.3100
v -2 74 12 0.5500 0.5500 0.5500
v 2 74 12 0.5500 0.5500 0.5500
v 0 88 4 0.6000 0.6000 0.6000
v 14 -6 7 0.5596 0.5596 0.5596
v 0 -6 15 0.5596 0.5596 0.5596
v 0 100 11 0.4224 0.4224 0.4224
v 10 100 5 0.4224 0.4224 0.4224
v -14 -6 7 0.5596 0.5596 0.5596
v -10 100 5 0.4224 0.4224 0.4224
v -14 -6 7 0.4770 0.4770 0.4770
v -14 -6 -7 0.4770 0.4770 0.4770
v -10 100 -5 0.3600 0.3600 0.3600
v -10 100 5 0.3600 0.3600 0.3600
v -14 -6 -7 0.3944 0.3944 0.3944
v 0 -6 -15 0.3944 0.3944 0.3944
v 0 100 -11 0.2976 0.2976 0.2976
v -10 100 -5 0.2976 0.2976 0.2976
v 14 -6 -8 0.3944 0.3944 0.3944
v 10 100 -6 0.2976 0.2976 0.2976
v 14 -6 -8 0.4770 0.4770 0.4770
v 14 -6 7 0.4770 0.4770 0.4770
v 10 100 5 0.3600 0.3600 0.3600
v 10 100 -6 0.3600 0.3600 0.3600
v 14 -6 -8 0.5750 0.5750 0.5750
v 0 -6 -15 0.5750 0.5750 0.5750
v -14 -6 -7 0.5750 0.5750 0.5750
v -14 -6 7 0.5750 0.5750 0.5750
v 0 -6 15 0.5750 0.5750 0.5750
v 14 -6 7 0.5750 0.5750 0.5750
v 11 -4 6 0.5596 0.5596 0.5596
v 0 -4 13 0.5596 0.5596 0.5596
v 0 74 10 0.4224 0.4224 0.4224
v 9 74 5 0.4224 0.4224 0.4224
v -11 -4 6 0.5596 0.5596 0.5596
v -9 74 5 0.4224 0.4224 0.4224
v -11 -4 6 0.4770 0.4770 0.4770
v -11 -4 -6 0.4770 0.4770 0.4770
v -9 74 -5 0.3600 0.3600 0.3600
v -9 74 5 0.3600 0.3600 0.3600
v -11 -4 -6 0.3944 0.3944 0.3944
v 0 -4 -13 0.3944 0.3944 0.3944
v 0 74 -10 0.2976 0.2976 0.2976
v -9 74 -5 0.2976 0.2976 0.2976
v 11 -4 -7 0.3944 0.3944 0.3944
v 9 74 -5 0.2976 0.2976 0.2976
v 11 -4 -7 0.4770 0.4770 0.4770
v 11 -4 6 0.4770 0.4770 0.4770
v 9 74 5 0.3600 0.3600 0.3600
v 9 74 -5 0.3600 0.3600 0.3600
v 11 -4 -7 0.5750 0.5750 0.5750
v 0 -4 -13 0.5750 0.5750 0.5750
v -11 -4 -6 0.5750 0.5750 0.5750
v -11 -4 6 0.5750 0.5750 0.5750
v 0 -4 13 0.5750 0.5750 0.5750
v 11 -4 6 0.5750 0.5750 0.5750
v 10 74 6 0.5596 0.5596 0.5596
v 0 74 12 0.5596 0.5596 0.5596
v 0 118 11 0.4224 0.4224 0.4224
v 9 118 5 0.4224 0.4224 0.4224
v -10 74 6 0.5596 0.5596 0.5596
v -9 118 5 0.4224 0.4224 0.4224
v -10 74 6 0.4770 0.4770 0.4770
v -10 74 -6 0.4770 0.4770 0.4770
v -9 118 -5 0.3600 0.3600 0.3600
v -9 118 5 0.3600 0.3600 0.3600
v -10 74 -6 0.3944 0.3944 0.3944
v 0 74 -12 0.3944 0.3944 0.3944
v 0 118 -11 0.2976 0.2976 0.2976
v -9 118 -5 0.2976 0.2976 0.2976
v 10 74 -6 0.3944 0.3944 0.3944
v 9 118 -6 0.2976 0.2976 0.2976
v 10 74 -6 0.4770 0.4770 0.4770
v 10 74 6 0.4770 0.4770 0.4770
v 9 118 5 0.3600 0.3600 0.3600
v 9 118 -6 0.3600 0.3600 0.3600
v 9 118 5 0.3000 0.3000 0.3000
v 0 118 11 0.3000 0.3000 0.3000
v -9 118 5 0.3000 0.3000 0.3000
v -9 118 -5 0.3000 0.3000 0.3000
v 0 118 -11 0.3000 0.3000 0.3000
v 9 118 -6 0.3000 0.3000 0.3000
v -9 2 32 0.5100 0.5100 0.5100
v 9 2 32 0.5100 0.5100 0.5100
v 9 24 32 0.5100 0.5100 0.5100
v -9 24 32 0.5100 0.5100 0.5100
v 9 2 -16 0.3750 0.3750 0.3750
v -9 2 -16 0.3750 0.3750 0.3750
v -9 24 -16 0.3750 0.3750 0.3750
v 9 24 -16 0.3750 0.3750 0.3750
v 9 2 32 0.4600 0.4600 0.4600
v 9 2 -16 0.4600 0.4600 0.4600
v 9 24 -16 0.4600 0.4600 0.4600
v 9 24 32 0.4600 0.4600 0.4600
v -9 2 -16 0.4600 0.4600 0.4600
v -9 2 32 0.4600 0.4600 0.4600
v -9 24 32 0.4600 0.4600 0.4600
v -9 24 -16 0.4600 0.4600 0.4600
v -9 2 -16 0.5600 0.5600 0.5600
v 9 2 -16 0.5600 0.5600 0.5600
v 9 2 32 0.5600 0.5600 0.5600
v -9 2 32 0.5600 0.5600 0.5600
v -9 24 32 0.3100 0.3100 0.3100
v 9 24 32 0.3100 0.3100 0.3100
v 9 24 -16 0.3100 0.3100 0.3100
v -9 24 -16 0.3100 0.3100 0.3100
v -7 12 54 0.5100 0.5100 0.5100
v 7 12 54 0.5100 0.5100 0.5100
v 7 24 54 0.5100 0.5100 0.5100
v -7 24 54 0.5100 0.5100 0.5100
v 7 12 32 0.3750 0.3750 0.3750
v -7 12 32 0.3750 0.3750 0.3750
v -7 24 32 0.3750 0.3750 0.3750
v 7 24 32 0.3750 0.3750 0.3750
v 7 12 54 0.4600 0.4600 0.4600
v 7 12 32 0.4600 0.4600 0.4600
v 7 24 32 0.4600 0.4600 0.4600
v 7 24 54 0.4600 0.4600 0.4600
v -7 12 32 0.4600 0.4600 0.4600
v -7 12 54 0.4600 0.4600 0.4600
v -7 24 54 0.4600 0.4600 0.4600
v -7 24 32 0.4600 0.4600 0.4600
v -7 12 32 0.5600 0.5600 0.5600
v 7 12 32 0.5600 0.5600 0.5600
v 7 12 54 0.5600 0.5600 0.5600
v -7 12 54 0.5600 0.5600 0.5600
v -7 24 54 0.3100 0.3100 0.3100
v 7 24 54 0.3100 0.3100 0.3100
v 7 24 32 0.3100 0.3100 0.3100
v -7 24 32 0.3100 0.3100 0.3100
v 10 100 -5 0.3600 0.3600 0.3600
v 14 -6 -7 0.4770 0.4770 0.4770
v 10 100 -5 0.2976 0.2976 0.2976
v 14 -6 -7 0.3944 0.3944 0.3944
v -10 100 -6 0.2976 0.2976 0.2976
v -14 -6 -8 0.3944 0.3944 0.3944
v -10 100 -6 0.3600 0.3600 0.3600
v -14 -6 -8 0.4770 0.4770 0.4770
v 14 -6 -7 0.5750 0.5750 0.5750
v -14 -6 -8 0.5750 0.5750 0.5750
v 11 -4 -6 0.4770 0.4770 0.4770
v 11 -4 -6 0.3944 0.3944 0.3944
v -11 -4 -7 0.3944 0.3944 0.3944
v -11 -4 -7 0.4770 0.4770 0.4770
v 11 -4 -6 0.5750 0.5750 0.5750
v -11 -4 -7 0.5750 0.5750 0.5750
v 9 118 -5 0.3600 0.3600 0.3600
v 9 118 -5 0.2976 0.2976 0.2976
v -9 118 -6 0.2976 0.2976 0.2976
v -9 118 -6 0.3600 0.3600 0.3600
v 9 118 -5 0.3000 0.3000 0.3000
v -9 118 -6 0.3000 0.3000 0.3000
vt 0.509766 0.755859
vt 0.509766 0.953125
vt 0.744141 0.990234
vt 0.744141 0.845703
vt 0.509766 0.990234
vt 0.744141 0.958984
vt 0.744141 0.787109
vt 0.509766 0.792969
vt 0.744141 0.900391
vt 0.744141 0.755859
vt 0.744141 0.966797
vt 0.744141 0.779297
vt 0.647461 0.990234
vt 0.578125 0.990234
vt 0.509766 0.852539
vt 0.578125 0.755859
vt 0.744141 0.852539
vt 0.647461 0.755859
vt 0.009766 0.990234
vt 0.244141 0.990234
vt 0.244141 0.755859
vt 0.009766 0.755859
vt 0.259766 0.894531
vt 0.259766 0.990234
vt 0.369141 0.990234
vt 0.369141 0.880859
vt 0.259766 0.880859
vt 0.259766 0.976562
vt 0.259766 0.887695
vt 0.259766 0.983398
vt 0.759766 0.990234
vt 0.994141 0.990234
vt 0.994141 0.755859
vt 0.759766 0.755859
vt 0.509766 0.788086
vt 0.509766 0.978516
vt 0.509766 0.794922
vt 0.509766 0.951172
vt 0.509766 0.970703
vt 0.509766 0.775391
vt 0.599609 0.990234
vt 0.509766 0.900391
vt 0.599609 0.755859
vt 0.688477 0.755859
vt 0.744141 0.950195
vt 0.744141 0.862305
vt 0.744141 0.899414
vt 0.744141 0.846680
vt 0.744141 0.827148
vt 0.744141 0.918945
vt 0.994141 0.912109
vt 0.994141 0.833984
vt 0.994141 0.906250
vt 0.994141 0.839844
vt 0.009766 0.505859
vt 0.009766 0.708008
vt 0.244141 0.740234
vt 0.244141 0.583008
vt 0.009766 0.740234
vt 0.244141 0.713867
vt 0.244141 0.532227
vt 0.009766 0.538086
vt 0.244141 0.663086
vt 0.244141 0.505859
vt 0.244141 0.712891
vt 0.244141 0.533203
vt 0.259766 0.559570
vt 0.259766 0.740234
vt 0.494141 0.717773
vt 0.494141 0.505859
vt 0.259766 0.523438
vt 0.259766 0.722656
vt 0.494141 0.740234
vt 0.259766 0.505859
vt 0.259766 0.686523
vt 0.494141 0.528320
vt 0.259766 0.526367
vt 0.259766 0.719727
vt 0.397461 0.740234
vt 0.328125 0.740234
vt 0.259766 0.602539
vt 0.328125 0.505859
vt 0.397461 0.505859
vt 0.634766 0.740234
vt 0.744141 0.740234
vt 0.744141 0.630859
vt 0.634766 0.630859
vt 0.259766 0.415039
vt 0.259766 0.490234
vt 0.494141 0.423828
vt 0.494141 0.255859
vt 0.259766 0.321289
vt 0.259766 0.424805
vt 0.494141 0.490234
vt 0.259766 0.255859
vt 0.259766 0.331055
vt 0.494141 0.322266
vt 0.009766 0.573242
vt 0.009766 0.672852
vt 0.009766 0.581055
vt 0.244141 0.572266
vt 0.009766 0.674805
vt 0.009766 0.571289
vt 0.009766 0.665039
vt 0.244141 0.673828
vt 0.021484 0.505859
vt 0.244141 0.544922
vt 0.220703 0.740234
vt 0.021484 0.740234
vt 0.244141 0.701172
vt 0.220703 0.505859
vt 0.494141 0.564453
vt 0.494141 0.681641
vt 0.494141 0.710938
vt 0.494141 0.535156
vt 0.376953 0.740234
vt 0.259766 0.583984
vt 0.376953 0.505859
vt 0.416016 0.505859
vt 0.494141 0.548828
vt 0.494141 0.697266
vt 0.494141 0.718750
vt 0.494141 0.527344
vt 0.509766 0.740234
vt 0.509766 0.630859
vt 0.619141 0.630859
vt 0.619141 0.740234
vt 0.884766 0.740234
vt 0.884766 0.630859
vt 0.994141 0.630859
vt 0.994141 0.740234
vt 0.509766 0.255859
vt 0.509766 0.490234
vt 0.619141 0.490234
vt 0.619141 0.329102
vt 0.619141 0.416992
vt 0.619141 0.255859
vt 0.619141 0.458984
vt 0.619141 0.287109
vt 0.564453 0.490234
vt 0.509766 0.333984
vt 0.564453 0.255859
vt 0.583008 0.255859
vt 0.494141 0.559570
vt 0.494141 0.686523
vt 0.494141 0.712891
vt 0.494141 0.533203
vt 0.009766 0.380859
vt 0.009766 0.490234
vt 0.244141 0.490234
vt 0.244141 0.399414
vt 0.244141 0.471680
vt 0.244141 0.380859
vt 0.244141 0.485352
vt 0.244141 0.385742
vt 0.126953 0.380859
vt 0.009766 0.454102
vt 0.126953 0.490234
vt 0.087891 0.380859
o part_00
usemtl skin
f 1/1 2/2 3/3 4/4
f 5/1 6/5 7/6 8/7
f 9/8 10/5 11/9 12/10
f 13/1 14/5 15/11 16/12
f 17/5 18/8 19/10 20/9
f 21/5 22/1 23/7 24/6
f 25/2 26/1 27/4 28/3
f 29/5 30/1 31/12 32/11
f 33/10 34/13 35/5
f 33/10 35/14 36/1
f 33/3 36/5 37/1
f 33/3 37/15 38/16
f 33/1 38/3 39/17
f 33/1 39/3 40/18
f 41/19 42/20 43/21 44/22
f 45/5 46/3 47/10 48/1
f 49/5 50/3 51/10 52/1
f 53/5 54/3 55/10 56/1
f 57/23 58/24 59/25 60/26
f 58/27 61/28 62/25 59/26
f 63/29 64/30 65/25 66/26
f 67/28 68/27 69/26 70/25
f 68/24 71/23 72/26 69/25
f 73/30 74/29 75/26 76/25
f 77/31 78/32 79/33 80/34
f 81/32 82/31 83/34 84/33
f 85/34 86/31 87/32 88/33
f 89/31 90/34 91/33 92/32
f 93/31 94/32 95/33 96/34
f 97/34 98/33 99/32 100/31
f 101/31 102/32 103/33 104/34
f 105/32 106/31 107/34 108/33
f 109/34 110/31 111/32 112/33
f 113/31 114/34 115/33 116/32
f 117/31 118/32 119/33 120/34
f 121/34 122/33 123/32 124/31
f 125/35 126/36 127/3 128/10
f 129/37 130/5 131/3 132/10
f 133/1 134/38 135/3 136/10
f 137/36 138/35 139/10 140/3
f 141/39 142/40 143/10 144/3
f 145/9 146/41 147/1
f 145/3 147/42 148/43
f 145/1 148/3 149/44
f 150/1 151/5 152/45 153/46
f 154/1 155/5 156/3 157/47
f 158/1 159/5 160/48 161/10
f 162/5 163/1 164/46 165/45
f 166/5 167/1 168/49 169/50
f 170/34 171/31 172/51 173/52
f 174/34 175/31 176/53 177/54
f 178/31 179/34 180/52 181/51
f 182/31 183/34 184/54 185/53
f 186/33 187/32 188/31
f 186/33 188/31 189/34
f 190/35 191/36 192/3 193/10
f 194/37 195/5 196/3 197/10
f 198/1 199/38 200/3 201/10
f 202/36 203/35 204/10 205/3
f 206/39 207/40 208/10 209/3
f 210/9 211/41 212/1
f 210/3 212/42 213/43
f 210/1 213/3 214/44
f 215/1 216/5 217/45 218/46
f 219/1 220/5 221/3 222/47
f 223/1 224/5 225/48 226/10
f 227/5 228/1 229/46 230/45
f 231/5 232/1 233/49 234/50
f 235/34 236/31 237/51 238/52
f 239/34 240/31 241/53 242/54
f 243/31 244/34 245/52 246/51
f 247/31 248/34 249/54 250/53
f 251/33 252/32 253/31
f 251/33 253/31 254/34
o part_01
usemtl skin
f 255/55 256/56 257/57 258/58
f 259/55 260/59 261/60 262/61
f 263/62 264/59 265/63 266/64
f 267/55 268/59 269/65 270/66
f 271/59 272/62 273/64 274/63
f 275/59 276/55 277/61 278/60
f 279/56 280/55 281/58 282/57
f 283/59 284/55 285/66 286/65
f 287/67 288/68 289/69 290/70
f 291/71 292/72 293/73 294/70
f 295/74 296/75 297/73 298/76
f 299/77 300/78 301/73 302/70
f 303/75 304/74 305/76 306/73
f 307/72 308/71 309/70 310/73
f 311/68 312/67 313/70 314/69
f 315/78 316/77 317/70 318/73
f 319/70 320/79 321/68
f 319/70 321/80 322/74
f 319/73 322/68 323/74
f 319/73 323/81 324/82
f 319/73 324/74 325/83
f 319/74 325/73 326/83
f 327/59 328/55 329/64 330/57
f 331/55 332/59 333/57 334/64
f 335/57 336/59 337/55 338/64
f 339/59 340/57 341/64 342/55
f 343/59 344/55 345/64 346/57
f 347/57 348/64 349/55 350/59
f 351/59 352/55 353/64 354/57
f 355/55 356/59 357/57 358/64
f 359/57 360/59 361/55 362/64
f 363/59 364/57 365/64 366/55
f 367/59 368/55 369/64 370/57
f 371/57 372/64 373/55 374/59
f 375/84 376/85 377/86 378/87
f 379/87 380/84 381/85 382/86
f 383/84 384/87 385/86 386/85
f 387/84 388/85 389/86 390/87
f 391/87 392/86 393/85 394/84
o part_02
usemtl skin
f 395/88 396/89 397/90 398/91
f 399/92 400/93 401/94 402/91
f 403/95 404/96 405/94 406/97
f 407/98 408/99 409/57 410/64
f 411/100 412/55 413/101 414/57
f 415/102 416/103 417/64 418/57
f 419/59 420/104 421/64 422/105
f 423/99 424/98 425/64 426/57
f 427/102 428/106 429/107 430/108
f 431/103 432/109 433/110 434/111
o part_03
usemtl skin
f 435/74 436/68 437/73 438/112
f 436/74 439/68 440/113 437/70
f 441/74 442/68 443/114 444/115
f 445/68 446/74 447/70 448/113
f 446/68 449/74 450/112 447/73
f 451/68 452/74 453/115 454/114
f 455/70 456/116 457/74
f 455/73 457/68 458/74
f 455/73 458/117 459/118
f 455/74 459/73 460/119
o part_04
usemtl skin
f 461/74 462/68 437/73 438/120
f 462/74 463/68 440/121 437/70
f 464/74 465/68 443/122 444/123
f 466/68 467/74 447/70 448/121
f 467/68 468/74 450/120 447/73
f 469/68 470/74 453/123 454/122
f 471/70 472/116 473/74
f 471/73 473/68 474/74
f 471/73 474/117 475/118
f 471/74 475/73 476/119
o part_05
usemtl skin
f 477/124 478/125 479/126 480/127
f 481/125 482/124 483/127 484/126
f 485/125 486/124 487/127 488/126
f 489/124 490/125 491/126 492/127
f 493/124 494/127 495/126 496/125
f 497/125 498/126 499/127 500/124
f 501/124 502/127 503/126 504/125
f 505/127 506/124 507/125 508/126
f 509/127 510/124 511/125 512/126
f 513/124 514/127 515/126 516/125
f 517/124 518/127 519/126 520/125
f 521/125 522/126 523/127 524/124
f 525/84 526/85 527/86 528/87
f 529/85 530/84 531/87 532/86
f 533/87 534/84 535/85 536/86
f 537/84 538/87 539/86 540/85
f 541/84 542/85 543/86 544/87
f 545/87 546/86 547/85 548/84
o part_06
usemtl skin
f 440/112 437/73 436/68 439/74
f 437/70 438/113 435/68 436/74
f 453/115 549/114 451/68 452/74
f 550/113 447/70 446/74 449/68
f 447/73 551/112 445/74 446/68
f 552/114 444/115 441/74 442/68
f 455/74 456/116 457/70
f 460/74 455/68 457/73
f 459/118 460/117 457/73
f 458/119 459/73 457/74
o part_07
usemtl skin
f 440/120 437/73 462/68 463/74
f 437/70 438/121 461/68 462/74
f 453/123 549/122 553/68 470/74
f 550/121 447/70 467/74 554/68
f 447/73 551/120 555/74 467/68
f 552/122 444/123 464/74 556/68
f 557/74 472/116 558/70
f 476/74 557/68 558/73
f 475/118 476/117 558/73
f 474/119 475/73 558/74
o part_08
usemtl skin
f 477/124 478/125 479/126 480/127
f 481/125 482/124 483/127 484/126
f 485/125 486/124 487/127 488/126
f 489/124 490/125 491/126 492/127
f 493/124 494/127 495/126 496/125
f 497/125 498/126 499/127 500/124
f 501/124 502/127 503/126 504/125
f 505/127 506/124 507/125 508/126
f 509/127 510/124 511/125 512/126
f 513/124 514/127 515/126 516/125
f 517/124 518/127 519/126 520/125
f 521/125 522/126 523/127 524/124
f 559/124 560/127 561/126 562/125
f 563/127 564/124 565/125 566/126
f 567/127 568/124 569/125 570/126
f 571/124 572/127 573/126 574/125
f 575/124 576/125 577/126 578/127
f 579/127 580/126 581/125 582/124
f 583/128 584/129 585/130 586/131
f 587/129 588/128 589/131 590/130
f 591/129 592/128 593/131 594/130
f 595/128 596/129 597/130 598/131
f 599/128 600/129 601/130 602/131
f 603/131 604/130 605/129 606/128
f 607/129 608/129 609/131
o part_09
usemtl skin
f 610/132 611/133 612/134 613/135
f 611/132 614/133 615/136 612/137
f 616/132 617/133 618/138 619/139
f 620/133 621/132 622/137 623/136
f 621/133 624/132 625/135 622/134
f 626/133 627/132 628/139 629/138
f 630/137 631/140 632/132
f 630/134 632/133 633/132
f 630/134 633/141 634/142
f 630/132 634/134 635/143
o part_10
usemtl skin
f 636/74 637/68 638/73 639/144
f 637/74 640/68 641/145 638/70
f 642/74 643/68 644/146 645/147
f 646/68 647/74 648/70 649/145
f 647/68 650/74 651/144 648/73
f 652/68 653/74 654/147 655/146
f 656/70 657/116 658/74
f 656/73 658/68 659/74
f 656/73 659/117 660/118
f 656/74 660/73 661/119
f 662/148 663/149 664/150 665/151
f 663/148 666/149 667/152 664/153
f 668/148 669/149 670/154 671/155
f 672/149 673/148 674/153 675/152
f 673/149 676/148 677/151 674/150
f 678/149 679/148 680/155 681/154
f 682/150 683/156 684/149
f 682/153 684/148 685/149
f 682/153 685/157 686/158
f 682/153 686/149 687/159
o part_11
usemtl skin
f 688/149 689/148 690/153 691/150
f 692/148 693/149 694/150 695/153
f 696/150 697/149 698/148 699/153
f 700/149 701/150 702/153 703/148
f 704/149 705/148 706/153 707/150
f 708/150 709/153 710/148 711/149
f 712/149 713/150 714/153 715/148
f 716/150 717/149 718/148 719/153
f 720/150 721/149 722/148 723/153
f 724/149 725/150 726/153 727/148
f 728/149 729/148 730/153 731/150
f 732/150 733/153 734/148 735/149
o part_12
usemtl skin
f 615/135 612/134 611/133 614/132
f 612/137 613/136 610/133 611/132
f 628/139 736/138 737/133 627/132
f 738/136 622/137 621/132 739/133
f 622/134 740/135 741/132 621/133
f 742/138 619/139 616/132 743/133
f 744/132 631/140 745/137
f 635/132 744/133 745/134
f 634/142 635/141 745/134
f 633/143 634/134 745/132
o part_13
usemtl skin
f 641/144 638/73 637/68 640/74
f 638/70 639/145 636/68 637/74
f 654/147 655/146 746/68 653/74
f 651/145 648/70 647/74 747/68
f 648/73 649/144 748/74 647/68
f 644/146 645/147 642/74 749/68
f 750/74 657/116 751/70
f 661/74 750/68 751/73
f 660/118 661/117 751/73
f 659/119 660/73 751/74
f 667/151 664/150 663/149 666/148
f 664/153 665/152 662/149 663/148
f 680/155 752/154 678/149 679/148
f 753/152 674/153 673/148 676/149
f 674/150 754/151 672/148 673/149
f 755/154 671/155 668/148 669/149
f 682/149 683/156 684/150
f 756/149 682/148 684/153
f 686/158 756/157 684/153
f 757/159 686/149 684/153
o part_14
usemtl skin
f 690/150 691/153 688/148 689/149
f 694/153 695/150 692/149 693/148
f 702/153 703/148 700/149 701/150
f 698/148 699/153 696/150 697/149
f 706/150 707/153 704/148 705/149
f 710/149 711/148 708/153 709/150
f 714/148 715/153 712/150 713/149
f 718/153 719/148 716/149 717/150
f 726/153 727/148 724/149 725/150
f 722/148 723/153 720/150 721/149
f 730/150 731/153 728/148 729/149
f 734/149 735/148 732/153 733/150
